<svg width="32" height="32" viewBox="0 0 32 32" fill="none" xmlns="http://www.w3.org/2000/svg">
  <!-- Background circle -->
  <circle cx="16" cy="16" r="16" fill="#22c55e"/>
  
  <!-- Leaf shape -->
  <path d="M9 16C9 13 11 10 14 8.5C17 7 20 8.5 22 11.5C24 14.5 22 17.5 19 19C16 20.5 13 19 11 16C10.2 15.2 9.6 15.6 9 16Z" fill="#16a34a"/>
  
  <!-- Food bowl -->
  <ellipse cx="16" cy="22.5" rx="6" ry="2.2" fill="#ffffff"/>
  <ellipse cx="16" cy="21.2" rx="6" ry="2.2" fill="#f3f4f6"/>
  
  <!-- Food items in bowl -->
  <circle cx="14" cy="21.2" r="1" fill="#fbbf24"/>
  <circle cx="16" cy="20.5" r="0.7" fill="#ef4444"/>
  <circle cx="18" cy="21.2" r="0.8" fill="#10b981"/>
  <circle cx="15" cy="19.8" r="0.5" fill="#8b5cf6"/>
  <circle cx="17" cy="22" r="0.7" fill="#f59e0b"/>
  
  <!-- Leaf details -->
  <path d="M13 13C14.5 11.5 16 12.2 17.5 13.8" stroke="#15803d" stroke-width="0.8" fill="none"/>
  <path d="M12.5 14.5C14 13 15.5 13.7 17 15.3" stroke="#15803d" stroke-width="0.6" fill="none"/>
  
  <!-- Sparkle effects -->
  <circle cx="7" cy="7" r="0.6" fill="#ffffff" opacity="0.8"/>
  <circle cx="25" cy="5" r="0.5" fill="#ffffff" opacity="0.6"/>
  <circle cx="26" cy="10" r="0.8" fill="#ffffff" opacity="0.7"/>
  <circle cx="5" cy="22" r="0.6" fill="#ffffff" opacity="0.5"/>
</svg>
