<svg width="40" height="40" viewBox="0 0 40 40" fill="none" xmlns="http://www.w3.org/2000/svg">
  <!-- Background circle -->
  <circle cx="20" cy="20" r="20" fill="#22c55e"/>
  
  <!-- Leaf shape -->
  <path d="M12 20C12 16 14 12 18 10C22 8 26 10 28 14C30 18 28 22 24 24C20 26 16 24 14 20C13 19 12.5 19.5 12 20Z" fill="#16a34a"/>
  
  <!-- Food bowl -->
  <ellipse cx="20" cy="28" rx="8" ry="3" fill="#ffffff"/>
  <ellipse cx="20" cy="26" rx="8" ry="3" fill="#f3f4f6"/>
  
  <!-- Food items in bowl -->
  <circle cx="17" cy="26" r="1.5" fill="#fbbf24"/>
  <circle cx="20" cy="25" r="1" fill="#ef4444"/>
  <circle cx="23" cy="26" r="1.2" fill="#10b981"/>
  <circle cx="18.5" cy="24" r="0.8" fill="#8b5cf6"/>
  <circle cx="21.5" cy="27" r="1" fill="#f59e0b"/>
  
  <!-- Leaf details -->
  <path d="M16 16C18 14 20 15 22 17" stroke="#15803d" stroke-width="1" fill="none"/>
  <path d="M15 18C17 16 19 17 21 19" stroke="#15803d" stroke-width="0.8" fill="none"/>
  
  <!-- Sparkle effects -->
  <circle cx="10" cy="12" r="1" fill="#ffffff" opacity="0.8"/>
  <circle cx="30" cy="8" r="0.8" fill="#ffffff" opacity="0.6"/>
  <circle cx="32" cy="16" r="1.2" fill="#ffffff" opacity="0.7"/>
  <circle cx="8" cy="28" r="0.9" fill="#ffffff" opacity="0.5"/>
</svg>
